<svg xmlns="http://www.w3.org/2000/svg" width="44.468" height="19.269" viewBox="0 0 44.468 19.269">
  <g id="Group_158" data-name="Group 158" transform="translate(-215 -124)">
    <g id="Group_156" data-name="Group 156" transform="translate(19 4)">
      <g id="Group_154" data-name="Group 154">
        <path id="Path_110" data-name="Path 110" d="M40.762.5H3.706A3.71,3.71,0,0,0,0,4.206V16.064a3.71,3.71,0,0,0,3.706,3.706H40.762a3.71,3.71,0,0,0,3.706-3.706V4.206A3.71,3.71,0,0,0,40.762.5ZM37.8,18.287H6.67V16.064a.741.741,0,0,1,.741-.741H37.057a.741.741,0,0,1,.741.741Zm5.188-2.223a2.224,2.224,0,0,1-2.223,2.223H39.28V16.064a2.224,2.224,0,0,0-2.223-2.223H7.411a2.224,2.224,0,0,0-2.223,2.223v2.223H3.706a2.224,2.224,0,0,1-2.223-2.223V4.206A2.224,2.224,0,0,1,3.706,1.982H40.762a2.224,2.224,0,0,1,2.223,2.223Zm0,0" transform="translate(196 119.5)" fill="#1a8dff"/>
      </g>
      <g id="Group_155" data-name="Group 155">
        <path id="Path_113" data-name="Path 113" d="M336,48.5h7.411v1.482H336Zm0,0" transform="translate(-106.873 74.947)" fill="#1a8dff"/>
      </g>
    </g>
    <g id="Group_157" data-name="Group 157" transform="translate(0 -4)">
      <path id="Path_115" data-name="Path 115" d="M304,48.5h1.482v1.482H304Zm0,0" transform="translate(-59.837 82.947)" fill="#1a8dff"/>
    </g>
  </g>
</svg>
