<svg xmlns="http://www.w3.org/2000/svg" width="30.291" height="32.411" viewBox="0 0 30.291 32.411">
  <path id="Path_47" data-name="Path 47" d="M42.3,3.73l.867-1.457a.723.723,0,0,1,1.26.707l-.867,1.457a.706.706,0,0,1-.63.353,1.127,1.127,0,0,1-.353-.08A.707.707,0,0,1,42.3,3.73Zm-12.747.71a.706.706,0,0,0,.63.353,1.128,1.128,0,0,0,.353-.08.716.716,0,0,0,.277-.984l-.867-1.457a.723.723,0,1,0-1.26.707Zm7-1.337a.7.7,0,0,0,.707-.707V.707a.707.707,0,0,0-1.413,0V2.4A.659.659,0,0,0,36.56,3.1ZM23.813,14.393h-1.69a.707.707,0,1,0,0,1.413h1.69a.707.707,0,1,0,0-1.413Zm27.187,0H49.31a.707.707,0,1,0,0,1.413H51a.707.707,0,0,0,0-1.413ZM49.7,7.548a.716.716,0,0,0-.984-.277l-1.457.867a.716.716,0,0,0-.277.984.706.706,0,0,0,.63.353,1.127,1.127,0,0,0,.353-.08l1.457-.867A.708.708,0,0,0,49.7,7.548Zm-3.854,7.475a9.479,9.479,0,0,1-1.22,4.6.687.687,0,0,1-.157.277l-.08.117a8.433,8.433,0,0,1-1.024,1.337C41.988,23.286,41.281,24.94,41.317,26v.04c0,.08.04.2.04.313v3.384a2.678,2.678,0,0,1-2.674,2.674H34.319a2.678,2.678,0,0,1-2.674-2.674V26c.04-1.024-.67-2.637-1.967-4.525A7.8,7.8,0,0,1,28.5,19.9c-.04-.08-.08-.117-.117-.2a9.243,9.243,0,0,1-1.26-4.641,9.362,9.362,0,0,1,18.725-.04ZM39.9,26.746H33.1v1.337h6.8V26.746Zm0,3.071v-.277H33.1v.277a1.233,1.233,0,0,0,1.22,1.1h4.368A1.229,1.229,0,0,0,39.9,29.817Zm4.484-14.794a7.909,7.909,0,1,0-15.818,0,8.011,8.011,0,0,0,1.1,4.015h0v.04A9.534,9.534,0,0,0,30.735,20.5l.08.08A11.962,11.962,0,0,1,33.059,25.3h6.885a12.514,12.514,0,0,1,2.321-4.838c0-.04.04-.04.08-.08a5.352,5.352,0,0,0,.9-1.22c0-.04.04-.04.04-.08s.04-.04.04-.08A7.721,7.721,0,0,0,44.388,15.023ZM25.86,8.138,24.4,7.271a.723.723,0,0,0-.707,1.26l1.457.867a.574.574,0,0,0,.353.08.71.71,0,0,0,.63-.353A.722.722,0,0,0,25.86,8.138Z" transform="translate(-21.416 0)" fill="#00e6c3"/>
</svg>
