<svg xmlns="http://www.w3.org/2000/svg" width="15.555" height="30.06" viewBox="0 0 15.555 30.06">
  <g id="Group_153" data-name="Group 153" transform="translate(-50 -533.13)">
    <path id="saving" d="M.88,16.513h.8V3.487A3.485,3.485,0,0,1,7.777,1.174,3.485,3.485,0,0,1,13.87,3.487V16.513h.8a.881.881,0,0,1,.88.88v3.345a.881.881,0,0,1-.88.88H13.99v.111a3.239,3.239,0,0,1-2.49,3.147v1.462a3.723,3.723,0,0,1-7.445,0V24.876a3.239,3.239,0,0,1-2.49-3.147v-.111H.88a.881.881,0,0,1-.88-.88V17.394A.881.881,0,0,1,.88,16.513Zm12.913,3.345V18.274H1.761v1.584ZM5.171,1.761A1.728,1.728,0,0,0,3.445,3.487V16.513H6.9V3.487A1.728,1.728,0,0,0,5.171,1.761ZM12.11,3.487a1.726,1.726,0,0,0-3.452,0V16.513H12.11ZM5.816,26.338a1.962,1.962,0,0,0,3.923,0V24.963H5.816Zm-2.49-4.609A1.475,1.475,0,0,0,4.8,23.2h5.957a1.475,1.475,0,0,0,1.473-1.473v-.111h-8.9Zm0,0" transform="translate(50 533.13)" fill="#2894ff"/>
  </g>
</svg>
