<svg xmlns="http://www.w3.org/2000/svg" width="27.884" height="35.894" viewBox="0 0 27.884 35.894">
  <g id="fan" transform="translate(-60.117)">
    <g id="Group_153" data-name="Group 153">
      <g id="Group_99" data-name="Group 99" transform="translate(65.459 31.37)">
        <path id="Path_63" data-name="Path 63" d="M132.638,372.844a.777.777,0,0,1-.083,0H117.663l-.058,0a.751.751,0,0,1-.753-.751V370.58a2.262,2.262,0,0,1,2.26-2.26h12.021a2.262,2.262,0,0,1,2.26,2.26v1.511A.753.753,0,0,1,132.638,372.844Zm-14.281-1.511h13.527v-.753a.754.754,0,0,0-.753-.753H119.111a.754.754,0,0,0-.753.753Z" transform="translate(-116.851 -368.32)" fill="#2189e2"/>
      </g>
      <path id="Path_64" data-name="Path 64" d="M74.059,27.884A13.942,13.942,0,1,1,88,13.942,13.958,13.958,0,0,1,74.059,27.884Zm0-26.377A12.435,12.435,0,1,0,86.494,13.942,12.449,12.449,0,0,0,74.059,1.507Z" fill="#2189e2"/>
      <g id="Group_101" data-name="Group 101" transform="translate(70.647 10.53)">
        <path id="Path_65" data-name="Path 65" d="M175.363,118.658a3.412,3.412,0,1,1,3.412-3.412A3.416,3.416,0,0,1,175.363,118.658Zm0-5.317a1.905,1.905,0,1,0,1.905,1.905A1.907,1.907,0,0,0,175.363,113.341Z" transform="translate(-171.951 -111.835)" fill="#2189e2"/>
      </g>
      <g id="Group_102" data-name="Group 102" transform="translate(70.647 3.058)">
        <path id="Path_66" data-name="Path 66" d="M174.329,41.67a.753.753,0,0,1-.7-.47c-1.679-4.136-1.679-5.016-1.679-5.306a3.412,3.412,0,0,1,6.823,0c0,.289,0,1.17-1.679,5.305a.753.753,0,0,1-1.4-.567c1.455-3.584,1.568-4.533,1.568-4.739a1.905,1.905,0,0,0-3.81,0c0,.206.113,1.155,1.569,4.739a.754.754,0,0,1-.7,1.037Z" transform="translate(-171.951 -32.482)" fill="#2189e2"/>
      </g>
      <g id="Group_103" data-name="Group 103" transform="translate(74.745 13.791)">
        <path id="Path_67" data-name="Path 67" d="M220.826,154.421a3.394,3.394,0,0,1-2-.65c-.231-.168-.933-.678-3.239-4.37a.753.753,0,1,1,1.278-.8c2,3.2,2.683,3.831,2.846,3.95a1.905,1.905,0,0,0,2.24-3.083c-.166-.121-1-.587-4.756-1.516a.753.753,0,1,1,.362-1.462c4.333,1.072,5.045,1.59,5.28,1.76a3.411,3.411,0,0,1-2.01,6.171Z" transform="translate(-215.472 -146.468)" fill="#2189e2"/>
      </g>
      <g id="Group_104" data-name="Group 104" transform="translate(64.602 13.791)">
        <path id="Path_68" data-name="Path 68" d="M111.162,154.421a3.411,3.411,0,0,1-2.01-6.171c.234-.17.947-.688,5.28-1.76a.753.753,0,0,1,.362,1.462c-3.756.929-4.59,1.4-4.756,1.516a1.905,1.905,0,0,0,2.24,3.083c.166-.121.867-.77,2.912-4.055a.753.753,0,0,1,1.279.8c-2.359,3.79-3.071,4.307-3.305,4.477A3.4,3.4,0,0,1,111.162,154.421Z" transform="translate(-107.745 -146.468)" fill="#2189e2"/>
      </g>
      <g id="Group_105" data-name="Group 105" transform="translate(69.916 26.377)">
        <path id="Path_69" data-name="Path 69" d="M164.938,286.474c-.416,0-.753-.218-.753-.487v-5.365c0-.269.337-.487.753-.487s.753.218.753.487v5.365C165.692,286.256,165.354,286.474,164.938,286.474Z" transform="translate(-164.185 -280.135)" fill="#2189e2"/>
      </g>
      <g id="Group_106" data-name="Group 106" transform="translate(76.695 26.377)">
        <path id="Path_70" data-name="Path 70" d="M236.938,286.474c-.416,0-.753-.218-.753-.487v-5.365c0-.269.337-.487.753-.487s.753.218.753.487v5.365C237.692,286.256,237.354,286.474,236.938,286.474Z" transform="translate(-236.185 -280.135)" fill="#2189e2"/>
      </g>
      <g id="Group_107" data-name="Group 107" transform="translate(72.929 28.307)">
        <path id="Path_71" data-name="Path 71" d="M197.692,313.861h-.753a.753.753,0,1,1,0-1.507h.753a.753.753,0,0,1,0,1.507Z" transform="translate(-196.185 -312.354)" fill="#2189e2"/>
      </g>
    </g>
  </g>
</svg>
