<svg xmlns="http://www.w3.org/2000/svg" width="21.168" height="35.184" viewBox="0 0 21.168 35.184">
  <g id="Group_154" data-name="Group 154" transform="translate(-101.979)">
    <path id="Path_61" data-name="Path 61" d="M123.138,4.156A4.161,4.161,0,0,0,118.981,0H106.135a4.161,4.161,0,0,0-4.156,4.157l.009,26.871a4.161,4.161,0,0,0,4.156,4.156h12.846a4.161,4.161,0,0,0,4.156-4.157Zm-19.1,0a2.1,2.1,0,0,1,2.1-2.1h12.846a2.1,2.1,0,0,1,2.1,2.1l0,4.631H104.042Zm14.95,28.966H106.144a2.1,2.1,0,0,1-2.1-2.1l-.007-20.178h17.036l.007,20.179A2.1,2.1,0,0,1,118.991,33.122Z" fill="#5086c6"/>
    <g id="Group_97" data-name="Group 97" transform="translate(116.584 13.34)">
      <g id="Group_96" data-name="Group 96" transform="translate(0)">
        <path id="Path_62" data-name="Path 62" d="M315.555,194.133a1.031,1.031,0,0,0-1.031,1.031v4.359a1.031,1.031,0,0,0,2.061,0v-4.359A1.031,1.031,0,0,0,315.555,194.133Z" transform="translate(-314.524 -194.133)" fill="#5086c6"/>
      </g>
    </g>
  </g>
</svg>
