<svg id="Group_156" data-name="Group 156" xmlns="http://www.w3.org/2000/svg" width="39.5" height="39.5" viewBox="0 0 39.5 39.5">
  <path id="Path_17" data-name="Path 17" d="M156.915,85.847c-.309.4-7.581,9.783-7.581,16.093a8.242,8.242,0,0,0,7.406,8.194v2.552a.823.823,0,1,0,1.646,0v-2.552a8.242,8.242,0,0,0,7.406-8.194c0-6.31-7.271-15.7-7.581-16.093A.851.851,0,0,0,156.915,85.847Zm-.174,22.641a6.6,6.6,0,0,1-5.76-6.548,8.9,8.9,0,0,1,.162-1.566l5.6,4.479Zm0-5.743-5.155-4.125a25.344,25.344,0,0,1,1.424-3.47l3.73,3.109v4.485Zm0-6.628-2.952-2.46A55.7,55.7,0,0,1,156.74,88.9Zm1.646-7.222a55.68,55.68,0,0,1,2.952,4.762l-2.952,2.46Zm0,9.365,3.73-3.109a25.35,25.35,0,0,1,1.424,3.47l-5.155,4.125V98.26Zm0,6.593,5.6-4.479a8.9,8.9,0,0,1,.162,1.566,6.6,6.6,0,0,1-5.76,6.548Z" transform="translate(-137.813 -78.947)" fill="#83ffde"/>
  <path id="Path_18" data-name="Path 18" d="M38.171,22.812A5.487,5.487,0,0,0,39.5,19.75a5.487,5.487,0,0,0-1.329-3.062,5.822,5.822,0,0,1-.93-1.625,6.079,6.079,0,0,1-.016-1.954,5.331,5.331,0,0,0-.369-3.236A5.441,5.441,0,0,0,34.21,7.919a5.952,5.952,0,0,1-1.658-.97,5.964,5.964,0,0,1-.97-1.658,5.451,5.451,0,0,0-1.954-2.646,5.342,5.342,0,0,0-3.237-.37,6.124,6.124,0,0,1-1.954-.016,5.817,5.817,0,0,1-1.626-.93A5.487,5.487,0,0,0,19.75,0a5.487,5.487,0,0,0-3.062,1.329,5.822,5.822,0,0,1-1.625.93,6.126,6.126,0,0,1-1.954.016,5.334,5.334,0,0,0-3.236.369A5.441,5.441,0,0,0,7.919,5.29a5.952,5.952,0,0,1-.97,1.658,5.964,5.964,0,0,1-1.658.97A5.451,5.451,0,0,0,2.645,9.872a5.34,5.34,0,0,0-.37,3.237,6.053,6.053,0,0,1-.016,1.954,5.817,5.817,0,0,1-.93,1.626A5.487,5.487,0,0,0,0,19.75a5.487,5.487,0,0,0,1.329,3.062,5.822,5.822,0,0,1,.93,1.625,6.079,6.079,0,0,1,.016,1.954,5.331,5.331,0,0,0,.369,3.236A5.441,5.441,0,0,0,5.29,31.581a5.952,5.952,0,0,1,1.658.97,5.964,5.964,0,0,1,.97,1.658,5.451,5.451,0,0,0,1.954,2.646,5.346,5.346,0,0,0,3.237.37,5.985,5.985,0,0,1,1.954.016,5.817,5.817,0,0,1,1.626.93A5.487,5.487,0,0,0,19.75,39.5a5.487,5.487,0,0,0,3.062-1.329,5.822,5.822,0,0,1,1.625-.93,5.987,5.987,0,0,1,1.954-.016,5.322,5.322,0,0,0,3.236-.369,5.441,5.441,0,0,0,1.954-2.646,5.952,5.952,0,0,1,.97-1.658,5.964,5.964,0,0,1,1.658-.97,5.451,5.451,0,0,0,2.646-1.954,5.34,5.34,0,0,0,.37-3.237,6.053,6.053,0,0,1,.016-1.954A5.81,5.81,0,0,1,38.171,22.812Zm-1.343-.952a7.028,7.028,0,0,0-1.177,2.152,7.281,7.281,0,0,0-.066,2.526,4.2,4.2,0,0,1-.154,2.265,4.228,4.228,0,0,1-1.911,1.283,7.155,7.155,0,0,0-2.133,1.3,7.157,7.157,0,0,0-1.3,2.133A4.215,4.215,0,0,1,28.8,35.432a4.2,4.2,0,0,1-2.265.154,7.225,7.225,0,0,0-2.527.066,7.032,7.032,0,0,0-2.151,1.177,4.235,4.235,0,0,1-2.11,1.026,4.235,4.235,0,0,1-2.11-1.026,7.029,7.029,0,0,0-2.152-1.177,4.722,4.722,0,0,0-1.23-.143c-.433,0-.868.039-1.3.077a4.191,4.191,0,0,1-2.265-.154A4.228,4.228,0,0,1,9.413,33.52a7.155,7.155,0,0,0-1.3-2.133,7.154,7.154,0,0,0-2.133-1.3A4.215,4.215,0,0,1,4.068,28.8a4.191,4.191,0,0,1-.154-2.265,7.286,7.286,0,0,0-.066-2.527A7.032,7.032,0,0,0,2.672,21.86a4.235,4.235,0,0,1-1.026-2.11,4.235,4.235,0,0,1,1.026-2.11,7.029,7.029,0,0,0,1.177-2.152,7.281,7.281,0,0,0,.066-2.526A4.2,4.2,0,0,1,4.069,10.7,4.228,4.228,0,0,1,5.98,9.413a7.155,7.155,0,0,0,2.133-1.3,7.157,7.157,0,0,0,1.3-2.133A4.215,4.215,0,0,1,10.7,4.068a4.164,4.164,0,0,1,2.265-.154,7.267,7.267,0,0,0,2.527-.066A7.032,7.032,0,0,0,17.64,2.672a4.235,4.235,0,0,1,2.11-1.026,4.235,4.235,0,0,1,2.11,1.026,7.029,7.029,0,0,0,2.152,1.177,7.259,7.259,0,0,0,2.526.066,4.22,4.22,0,0,1,2.265.154A4.228,4.228,0,0,1,30.087,5.98a7.155,7.155,0,0,0,1.3,2.133,7.157,7.157,0,0,0,2.133,1.3A4.215,4.215,0,0,1,35.432,10.7a4.191,4.191,0,0,1,.154,2.265,7.286,7.286,0,0,0,.066,2.527,7.032,7.032,0,0,0,1.177,2.151,4.235,4.235,0,0,1,1.026,2.11A4.236,4.236,0,0,1,36.828,21.86Z" fill="#83ffde"/>
</svg>
